<?xml version="1.0" standalone="no"?>
<!DOCTYPE svg PUBLIC "-//W3C//DTD SVG 1.1//EN" "http://www.w3.org/Graphics/SVG/1.1/DTD/svg11.dtd">
<svg xmlns="http://www.w3.org/2000/svg">
<metadata>Generated by Fontastic.me</metadata>
<defs>
<font id="untitled-font-7" horiz-adv-x="512">
<font-face font-family="untitled-font-7" units-per-em="512" ascent="480" descent="-32"/>
<missing-glyph horiz-adv-x="512" />

<glyph glyph-name="header-arrow-back" unicode="&#98;" d="M512 287l-390 0 180 179-46 46-256-256 256-256 46 46-180 179 390 0z"/>
<glyph glyph-name="arrow-dropdown" unicode="&#99;" d="M0 384l256-256 256 256z"/>
<glyph glyph-name="arrow-next" unicode="&#100;" d="M384 258c0 6-3 13-6 16l-189 221c-10 16-29 19-45 9-16-9-19-28-10-44 0-4 4-4 4-7l172-201-172-202c-13-13-13-32 0-45 12-13 32-13 44 0 4 3 4 3 4 7l188 220c7 10 10 20 10 26z"/>
<glyph glyph-name="other-asset-details" unicode="&#101;" d="M73 311c11 12 14 27 8 42-3 8-4 17-4 25 1 15 7 29 17 39 3 3 4 4 6 5 24 19 59 16 81-5l21-22-132-132c-17-17-17-45 0-62l113-114c18-17 46-17 63 0l54 54 23-23c1-1 4-3 7-3l34 0c3 0 4-1 4-4l0-30c0-7 6-14 15-14l29 0c3 0 5-2 5-4l0-35c0-2 1-5 3-7l15-15c2-2 4-3 6-3l64 0c3 0 6 3 6 6l0 62c0 3-2 4-3 6l-134 136 54 54c17 17 17 46 0 63l-114 114c-15 15-40 17-57 4l-22 21c-53 54-138 56-192 6l-2-3c-40-38-52-98-31-149 8-20 31-29 51-20 4 3 9 6 12 8z m143-15c16 15 43 15 58 0 16-16 16-43 0-58-15-16-42-16-58 0-15 15-15 42 0 58z"/>
<glyph glyph-name="other-menu-content" unicode="&#102;" d="M306 462c0-27-23-50-50-50-27 0-50 23-50 50 0 28 23 50 50 50 27 0 50-22 50-50z m0-206c0-27-23-50-50-50-27 0-50 23-50 50 0 27 23 50 50 50 27 0 50-23 50-50z m0-206c0-28-23-50-50-50-27 0-50 22-50 50 0 27 23 50 50 50 27 0 50-23 50-50z"/>
<glyph glyph-name="header-history-command-screen-1" unicode="&#103;" d="M256 512c-141 0-256-115-256-256 0-141 115-256 256-256 141 0 256 115 256 256 0 141-115 256-256 256z m34-266c0-14-11-26-25-26l-147 0c-14 0-26 12-26 26 0 14 12 26 26 26l124 0 0 122c0 14 11 26 25 26 15 0 26-12 26-26l0-148z"/>
<glyph glyph-name="header-history-command-screen" unicode="&#104;" d="M256 512c-141 0-256-115-256-256 0-141 115-256 256-256 141 0 256 115 256 256 0 141-115 256-256 256z m34-266c0-14-11-26-25-26l-147 0c-14 0-26 12-26 26 0 14 12 26 26 26l124 0 0 122c0 14 11 26 25 26 15 0 26-12 26-26l0-148z"/>
<glyph glyph-name="other-commands" unicode="&#105;" d="M479 471l-446 0c-17 0-33-16-33-34l0-362c0-18 16-32 33-32l445 0c18 0 33 15 33 32l0 362c1 18-15 34-32 34z m-324-309c-9-8-21-8-28 0-9 9-9 21 0 29l64 64-64 64c-9 8-9 21 0 28 8 9 21 9 28 0l78-78c5-4 6-10 6-14 0-6-1-10-6-15z m216-6l-111 0c-11 0-20 9-20 20 0 12 9 20 20 20l111 0c12 0 20-8 20-20 0-10-8-20-20-20z"/>
<glyph glyph-name="header-delete" unicode="&#106;" d="M85 57c0-31 26-57 57-57l228 0c31 0 57 26 57 57l0 341-342 0z m370 427l-99 0-29 28-142 0-29-28-99 0 0-57 398 0z"/>
<glyph glyph-name="direction" unicode="&#107;" d="M512 256l-132 110 0-79-93 0 0 93 79 0-110 132-110-132 79 0 0-93-93 0 0 79-132-110 132-110 0 79 93 0 0-93-79 0 110-132 110 132-79 0 0 93 93 0 0-79z"/>
<glyph glyph-name="header-apply" unicode="&#108;" d="M162 144l-121 121-41-42 162-162 350 349-41 41z"/>
<glyph glyph-name="other-email" unicode="&#109;" d="M461 461l-410 0c-28 0-51-23-51-51l0-308c0-28 23-51 51-51l410 0c28 0 51 23 51 51l0 308c0 28-23 51-51 51z m0-103l-205-128-205 128 0 52 205-128 205 128z"/>
<glyph glyph-name="question" unicode="&#110;" d="M256 512c-141 0-256-115-256-256 0-141 115-256 256-256 141 0 256 115 256 256 0 141-115 256-256 256z m0-404c-16 0-30 13-30 30 0 17 13 30 30 30 17 0 30-13 30-30 0-16-14-30-30-30z m64 149c-17-12-34-22-38-45l0-14-54 0 0 17c2 34 18 50 34 61 15 13 28 21 28 43 0 24-13 35-33 35-28 0-39-23-39-51l-57 0c1 55 38 97 95 97 74 0 98-46 98-76-1-38-18-54-34-67z"/>
<glyph glyph-name="photo-decor" unicode="&#111;" d="M24 440c-14 0-24-10-24-23l0-272 152 161c2 2 4 3 7 4 4 0 8-1 11-4l123-139 85 91c2 2 4 4 7 4 4 1 8-1 11-4l116-129 0 288c0 13-11 23-24 23z m274-71c19 0 36-16 36-36 0-20-16-36-36-36-20 0-36 16-36 36 0 20 16 36 36 36z m-137-89l-161-170 0-15c0-13 10-23 24-23l322 0z m226-47l-79-84 70-78 110 0c13 0 23 10 24 22z"/>
<glyph glyph-name="verify-installation" unicode="&#112;" d="M256 512c-141 0-256-115-256-256 0-141 115-256 256-256 141 0 256 115 256 256 0 141-115 256-256 256z m-28-370l-103 103 46 45 57-57 113 114 46-45z"/>
<glyph glyph-name="other-activation" unicode="&#113;" d="M256 512c-141 0-256-115-256-256 0-141 115-256 256-256 141 0 256 115 256 256 0 141-115 256-256 256z m-29-369l-101 102 45 45 56-56 114 113 45-45z"/>
<glyph glyph-name="other-phone" unicode="&#114;" d="M412 265l33 0c0 99-81 182-182 182l0-35c83 0 149-66 149-147z m83-116l-132 50-50-50c-66 44-121 100-165 165l50 50-50 132-9 0c-37 0-71-14-96-39-27-27-43-64-43-103 0-25 7-51 20-72 62-108 152-198 260-261 23-12 47-20 73-20 38 0 75 16 102 43 26 26 40 61 40 97z m-230 363l0-33c118 0 214-96 214-214l33 0c0 136-111 247-247 247z"/>
<glyph glyph-name="other-password" unicode="&#115;" d="M384 334l0 50c0 71-57 128-128 128-71 0-128-57-128-128l0-50c-40-35-64-85-64-142 0-107 85-192 192-192 107 0 192 85 192 192 0 57-24 108-64 142z m-97-175c0-17-14-31-31-31-17 0-31 14-31 31l0 64c0 17 14 32 31 32 17 0 31-15 31-32z m33 214c-20 7-41 11-64 11-23 0-44-4-64-11l0 11c0 36 28 64 64 64 36 0 64-28 64-64z"/>
<glyph glyph-name="speed" unicode="&#116;" d="M512 169c0 5 0 10 0 16 0 4 0 10 0 13-7 135-119 240-256 240-137 0-247-107-256-240 0-5 0-10 0-13 0-4 0-10 0-13 1-35 13-68 26-98l459 0c14 26 26 60 27 95z m-223-15c-17-17-44-17-60 0-17 17-17 44 0 59 16 16 169 108 169 108 0 0-95-153-109-167z"/>
<glyph glyph-name="menu-sign-out" unicode="&#117;" d="M256 512c-141 0-256-115-256-256 0-141 115-256 256-256 141 0 256 115 256 256 0 141-115 256-256 256z m-20-127c0 12 9 20 20 20 6 0 10-3 14-5 3-3 6-9 6-13l0-9c0-44 0-91 0-136 0-10-9-19-20-19-11 0-20 9-20 19 0 17 0 34 0 51 0 7 0 14 0 21l0 6c0 6 0 10 0 14 0 17 0 36 0 51z m46-277c-77-14-151 36-167 112 0 0 0 2 0 2-7 48 6 91 40 126 4 5 9 8 14 8 6 0 10-2 14-6 5-4 6-9 8-14 0-6-2-10-6-15-16-15-26-35-29-56-8-56 32-109 87-116 56-8 108 32 115 87 5 33-5 61-28 84-6 7-9 13-6 21 3 10 14 17 24 13 3-1 6-3 9-6 24-24 38-54 41-89 0-3 0-6 0-9 0-1 0-3 0-4 0-67-48-125-116-138z"/>
<glyph glyph-name="notofocation-active" unicode="&#118;" d="M193 63l127 0c0-36-28-63-63-63-34 0-64 28-64 63z m66 442c-26 1-49-19-50-44 0-2 0-2 0-3l0-24c-57-20-95-74-95-134l0-40c0-25-10-50-29-67l-7-7c-13-12-17-34-8-51 8-16 24-25 42-25l289 0c24 0 44 19 44 44l0 1c0 10-4 21-10 28l-14 16c-14 17-23 39-23 61l0 36c0 60-38 114-95 134l0 25c0 26-19 48-44 50z m175-91c0-54-44-98-98-98-55 0-98 44-98 98 0 54 43 98 98 98 54 0 98-44 98-98z"/>
<glyph glyph-name="header-notification" unicode="&#119;" d="M192 64l128 0c0-36-28-64-64-64-36 0-64 28-64 64z m67 448c-27 1-50-18-50-46 0-1 0-1 0-2l0-25c-57-19-95-73-95-135l0-39c0-26-10-50-29-69l-7-7c-13-14-17-34-8-51 8-16 24-26 42-26l292 0c26 0 45 20 45 46l0 1c0 12-4 22-10 30l-14 17c-15 17-23 40-23 63l0 37c0 61-38 115-95 135l0 20c-3 27-23 50-48 51z"/>
<glyph glyph-name="menu-user-settings" unicode="&#120;" d="M220 511l-18-62c-16-4-31-11-46-19l-56 32-52-52 32-56c-9-15-15-30-19-46l-62-18 0-72 62-18c4-16 12-31 19-46l-32-56 52-52 56 32c15-9 30-15 46-19l18-62 72 0 18 62c16 4 31 12 46 19l56-32 52 52-32 56c9 15 15 30 19 46l62 18 0 72-62 18c-4 16-12 31-19 46l32 56-52 52-56-32c-15 9-30 15-46 19l-18 62z m36-139c64 0 117-53 117-117 0-64-53-116-117-116-64 0-117 52-117 116 0 64 53 117 117 117z m0-70c-26 0-47-20-47-47 0-27 20-46 47-46 27 0 47 19 47 46 0 27-21 47-47 47z"/>
<glyph glyph-name="other-service-details" unicode="&#121;" d="M85 435l86 0 0 60c0 10 7 17 17 17 10 0 17-7 17-17l0-60 34 0 0 60c0 10 7 17 17 17 10 0 17-7 17-17l0-60 34 0 0 60c0 10 7 17 17 17 10 0 17-7 17-17l0-60 86 0c4 0 8-4 8-8l0-86 60 0c10 0 17-7 17-17 0-10-7-17-17-17l-60 0 0-34 60 0c10 0 17-8 17-17 0-10-7-17-17-17l-60 0 0-34 60 0c10 0 17-7 17-17 0-10-7-17-17-17l-60 0 0-86c0-4-4-8-8-8l-86 0 0-60c0-10-8-17-17-17-10 0-17 7-17 17l0 60-34 0 0-60c0-10-7-17-17-17-10 0-17 7-17 17l0 60-34 0 0-60c0-10-9-17-17-17-10 0-17 7-17 17l0 60-86 0c-4 0-8 4-8 8l0 86-60 0c-10 0-17 7-17 17 0 10 7 17 17 17l60 0 0 34-60 0c-10 0-17 7-17 17 0 10 7 17 17 17l60 0 0 34-60 0c-10 0-17 9-17 17 0 10 7 17 17 17l60 0 0 86c0 4 4 8 8 8z m248-102l-154 0 0-154 154 0z"/>
<glyph glyph-name="notes" unicode="&#122;" d="M256 0c-141 0-256 115-256 256 0 141 115 256 256 256 141 0 256-115 256-256 0-141-115-256-256-256z m-57 131l-68 68-14-70c-2-7 5-14 12-12z m171 163l-76 76-152-152 76-76z m37 83l-30 30c-13 13-33 13-46 0l-22-23 75-75 23 22c13 13 13 33 0 46z"/>
<glyph glyph-name="not-verified" unicode="&#65;" d="M256 512c-141 0-256-115-256-256 0-141 115-256 256-256 141 0 256 115 256 256 0 141-115 256-256 256z m102-313l-46-45-56 56-56-56-46 45 57 56-57 56 46 46 56-57 57 57 45-46-56-57z"/>
<glyph glyph-name="send" unicode="&#66;" d="M0 484l512-228-447 36z m0-456l512 228-447-36z"/>
<glyph glyph-name="search-decor2" unicode="&#67;" d="M301 28l0 106c0 13-10 24-23 26l0 37c77 11 136 77 136 157 0 87-71 158-158 158-87 0-158-71-158-158 0-80 59-146 136-157l0-37c-13-3-22-14-23-27l0-106c0-15 12-27 28-27l34 0c15 0 28 12 28 28z m-159 326c0 63 51 114 113 114 63 0 114-52 114-114 0-62-51-113-114-113-62-1-112 50-113 113z m174 60c-33 33-87 33-120 0-34-33-34-87 0-121 33-33 87-33 120 0 34 34 34 88 0 121z m-75-93c-5-5-13-5-18 0-3 3-4 6-4 9 0 3 1 6 4 9l15 15-15 16c-3 3-4 6-4 9 0 3 1 6 4 9 5 5 13 5 18 0l15-15 15 15c5 5 13 5 18 0 5-5 5-13 0-18l-15-15 15-16c5-4 5-13 0-18-5-4-13-4-18 0l-15 15z"/>
<glyph glyph-name="search-decor" unicode="&#68;" d="M301 28l0 106c0 13-10 24-23 26l0 37c77 11 136 77 136 157 0 87-71 158-158 158-87 0-158-71-158-158 0-80 59-146 136-157l0-37c-13-3-22-14-23-27l0-106c0-15 12-27 28-27l34 0c15 0 28 12 28 28z m-159 326c0 63 51 114 113 114 63 0 114-52 114-114 0-62-51-113-114-113-62-1-112 50-113 113z m174 60c-33 33-87 33-120 0-34-33-34-87 0-121 33-33 87-33 120 0 34 34 34 88 0 121z"/>
<glyph glyph-name="other-mobile-phone" unicode="&#69;" d="M158 512c-29 0-51-21-54-48l304 0c-3 27-25 48-54 48z m-54-73l0-341 304 0 0 341z m0-366l0-19c0-30 24-55 55-55l195 0c30 0 56 24 56 55l0 19z m109-25l86 0c7 0 12-5 12-12 0-8-5-13-12-13l-86 0c-7 0-12 5-12 13 0 7 5 12 12 12z"/>
<glyph glyph-name="other-name" unicode="&#70;" d="M0 24c0 98 55 186 144 231 45-62 130-76 193-30 11 8 23 20 31 31 87-44 144-134 144-232z m255 226c-66 0-120 53-120 120 0 67 53 119 120 119 65 0 119-52 119-119 0-67-54-120-119-120z"/>
<glyph glyph-name="header-menu" unicode="&#71;" d="M0 445l512 0 0-67-512 0z m0-156l356 0 0-67-356 0z m0-155l178 0 0-67-178 0z"/>
<glyph glyph-name="other-search-input" unicode="&#72;" d="M512 33l-176 176c10 13 17 26 24 41 40 96-4 205-100 245-22 10-48 14-72 14-104 2-188-82-188-186 0-76 46-144 114-172 65-29 138-16 190 27l177-177z m-324 148c-80 0-144 64-144 143 0 80 64 142 144 142 79 0 143-64 143-143 0-80-65-142-143-142z"/>
<glyph glyph-name="scan-1" unicode="&#73;" d="M51 461l120 0 0 51-171 0 0-156 51 0z m290 51l0-51 120 0 0-105 51 0 0 156z m120-461l-120 0 0-51 171 0 0 156-51 0z m-410 105l-51 0 0-156 171 0 0 51-120 0z m-51 126l512 0 0-52-512 0z"/>
<glyph glyph-name="other-payment" unicode="&#74;" d="M0 121c0-19 14-34 34-34l445 0c19 0 34 14 34 34l0 173-513 0z m385 75c12 0 22-5 29-13 7 8 17 13 28 13 22 0 39-17 39-38 0-21-17-39-39-39-11 0-21 6-28 13-7-7-17-13-29-13-21 0-38 18-38 39 0 21 17 38 38 38z m93 229l-444 0c-20 0-34-15-34-34l0-58 512 0 0 58c0 19-14 34-34 34z"/>
<glyph glyph-name="menu-home" unicode="&#75;" d="M287 447l49-37 2-2 0 56c0 7 3 12 8 17 4 4 10 7 17 7l48 0c7 0 13-3 17-7 4-5 7-10 7-17l0-128 4-3 59-43c7-6 11-13 13-21 1-9 0-17-6-24-6-7-13-12-21-13-9-2-18 0-25 6l-5 4 0-185c0-9-3-17-10-23-6-6-14-10-23-10l-110 0c0 0 0 2 0 2l0 149c0 6-2 11-7 16-4 4-10 7-15 7l-70 0c-6 0-11-3-16-7-4-5-7-10-7-16l0-151c0 0 0-1 0-1l-102 0c-9 0-17 3-23 10-6 5-10 14-10 22l0 188-8-7c-7-6-16-7-25-6-8 2-15 6-21 13-6 7-7 16-6 24 2 9 6 16 13 22l61 45 103 76 48 37c21 14 43 14 61 0z"/>
<glyph glyph-name="other-info" unicode="&#76;" d="M256 0c142 0 256 114 256 256 0 142-114 256-256 256-142 0-256-114-256-256 0-142 114-256 256-256z m37 158c0-19-17-34-37-34-20 0-37 15-37 34l0 104c0 18 17 34 37 34 20 0 37-16 37-34z m-37 230c20 0 37-17 37-37 0-20-17-37-37-37-20 0-37 17-37 37 0 22 17 37 37 37z"/>
<glyph glyph-name="photo-button-1" unicode="&#97;" d="M256 294c-24 0-43-20-43-44 0-23 19-44 43-44 24 0 43 20 43 44 0 23-19 44-43 44z m0-72c-16 0-28 13-28 28 0 16 12 29 28 29 16 0 28-13 28-29 0-15-12-28-28-28z m0 276c-134 0-242-109-242-242 0-133 108-242 242-242 133 0 242 108 242 242 0 133-109 242-242 242z m92-294c0-10-7-18-17-18l-150 0c-10 0-17 8-17 18l0 93c0 9 7 17 17 17l37 0 12 26 52 0 12-26 37 0c10 0 17-8 17-17z m-92 308c-142 0-256-114-256-256 0-142 114-256 256-256 142 0 256 114 256 256 0 142-114 256-256 256z m0-484c-125 0-228 103-228 228 0 125 103 228 228 228 125 0 228-103 228-228 0-125-103-228-228-228z"/>
<glyph glyph-name="other-delete-text-input" unicode="&#77;" d="M512 461l-51 51-205-205-205 205-51-51 205-205-205-205 51-51 205 205 205-205 51 51-205 205z"/>
<glyph glyph-name="other-password-eye" unicode="&#78;" d="M256 423c-113 0-210-66-255-162-1-3-1-7 0-10 45-96 142-162 255-162 113 0 210 66 255 162 1 3 1 7 0 10-45 96-142 162-255 162z m0-282c-64 0-115 51-115 115 0 64 51 115 115 115 64 0 115-51 115-115 0-64-51-115-115-115z m74 115c0-41-33-74-74-74-41 0-74 33-74 74 0 41 33 74 74 74 41 0 74-33 74-74z"/>
<glyph glyph-name="loc" unicode="&#79;" d="M256 512c-102 0-185-83-185-185 0-127 166-314 173-321 6-8 18-8 24 0 7 7 173 194 173 321 0 102-83 185-185 185z m0-279c-51 0-93 42-93 94 0 51 42 93 93 93 51 0 93-42 93-93 0-52-42-94-93-94z"/>
<glyph glyph-name="arrow-drop-down" unicode="&#80;" d="M256 110c-9 0-18 4-25 11l-220 220c-15 14-15 36 0 50 13 14 36 14 50 0l195-194 195 194c14 14 36 14 50 0 14-14 14-36 0-50l-220-220c-7-7-16-11-25-11z"/>
<glyph glyph-name="scan" unicode="&#81;" d="M1 433l0-100 22 0 0 78 77 0 0 22z m411 0l0-22 77 0 0-78 22 0 0 100z m-342-59l0-236 29 0 0 236z m39 0l0-236 10 0 0 236z m25 0l0-236 49 0 0 236z m68 0l0-236 10 0 0 236z m20 0l0-236 9 0 0 236z m19 0l0-236 10 0 0 236z m20 0l0-236 39 0 0 236z m49 0l0-236 30 0 0 236z m40 0l0-236 9 0 0 236z m18 0l0-236 20 0 0 236z m35 0l0-236 10 0 0 236z m19 0l0-236 20 0 0 236z m-421-195l0-100 99 0 0 22-76 0 0 78z m487 0l0-78-77 0 0-22 99 0 0 100z"/>
<glyph glyph-name="acc" unicode="&#82;" d="M409 403l-85 0c-17 0-25-15-25-33l0-90c0-18 8-34 25-34l17 0 0-109c0-2-2-3-1-4l26-27c0 0 1-1 2-1 0 0 1 1 2 1l27 27c1 1 1 2 1 4l0 13c0 1-1 3-2 4l-14 14c-1 1-1 3 0 4l12 12c2 2 3 4 3 6 0 2-1 4-3 6l-12 12c-1 0-1 1-1 2 0 0 0 1 1 1l14 15c1 1 2 2 2 4l0 16 11 0c18 1 32 16 32 34l0 90c0 18-14 32-32 33z m-39-104c-15 0-27 11-27 26 0 15 12 26 27 26 14 0 26-11 26-26 0-15-12-26-26-26z m-100-19l0 90c0 10-5 4 0 18l-14 0c-3 0-6 6-9 6-19 1-37 0-56-1-18-2-34-11-45-25-11-19-20-39-28-60-6 6-13 9-21 9l-7 0c-5 1-9-1-13-4-4-3-6-7-6-12l0-14c0-11 9-13 20-27l9 0c-1 0-2 1-3 0-8-13-12-28-12-43l0-92c0-11 8-20 18-21l25 0c11 0 14 10 14 21l0 8 171 0 0 88c-43 8-43 32-43 59z m-72-64c-2-7-7-12-14-12l-36 0c-8 1-15 8-15 16l0 10c0 9 7 16 15 16 2 0 3 0 4 0l36-10c8-3 12-12 10-20z"/>
<glyph glyph-name="battery" unicode="&#83;" d="M407 346l-302 0c-19 0-34-15-34-33l0-169c0-18 15-33 34-33l302 0c19 0 34 15 34 33l0 169c0 9-4 17-10 24-6 6-15 9-24 9z m-217-128l-49 0c-6 0-10 5-10 11 0 6 4 11 10 11l49 0c6 0 11-5 11-11 0-6-5-11-11-11z m183 0l-14 0 0-13c0-6-4-11-10-11-6 0-11 5-11 11l0 13-13 0c-6 0-11 5-11 11 0 6 5 11 11 11l13 0 0 13c0 6 5 11 11 11 6 0 10-5 10-11l0-13 14 0c3 0 5-1 7-3 2-2 3-5 3-8 1-6-4-11-10-11z m-167 158c1 12-7 22-19 23l-42 0c-11-1-20-11-19-23l0-20 80 0z m182 2c1 11-8 22-19 23l-42 0c-12-1-20-12-19-23l0-20 80 0z"/>
<glyph glyph-name="changer" unicode="&#84;" d="M74 249l85 152c7 13 23 19 37 12 10-4 17-15 17-27l0-107 47 0c10 0 18-5 23-13 5-8 5-18 0-26l-85-152c-5-9-15-14-25-14-16 0-29 13-29 28l0 108-47 0c-9 0-18 5-22 13-5 8-5 18-1 26z m343 121l-45 0 0 45c1 11-7 21-18 23-6 1-13 0-19-5-5-4-8-10-8-17l0-46-45 0c-11 0-21-8-23-18-2-7 0-14 4-19 5-6 11-9 18-9l46 0 0-45c0-11 7-20 18-23 7-1 14 0 19 5 5 4 9 10 8 17l0 46 46 0c7 0 14 3 18 9 5 5 6 12 5 19-3 11-13 18-24 18z"/>
<glyph glyph-name="gps" unicode="&#85;" d="M371 114l-8 20 35 34 9-19z m-150 221l20-9-36-36-20 9z m-72 72l19-9-35-35-19 8z m142-202l35 36 9-20-36-36z m148-53l-22 49c0 1-1 2-2 3l-1 1-2 2-1 1-2 1-44 20-20 45c0 3 1 7 1 11 4-1 8-1 12-1 19 0 38 8 52 21 2 3 4 7 4 11 0 4-2 8-4 11l-82 82c-6 6-16 6-22 0-17-17-24-41-20-64-4 0-7 0-11-1l-1 0-45 20-20 45c0 1-1 2-2 3l-2 3-2 1-2 1-49 22c-6 3-13 2-18-3l-58-58c-4-4-6-9-5-14 1-5 5-9 9-11l45-20 20-45c0-1 1-2 2-3l1-1 1-1 2-1 1-1 39-18c-1-3-1-5-1-8l-46-14c-6-2-10-6-11-11-1-6 0-11 4-15l28-28-28-28c-6-6-6-16 0-22 6-6 16-6 22 0l28 28 27-28c4-4 10-5 15-4 5 1 9 5 11 11l14 46c3 0 6 0 8 1l18-38c0-1 1-2 1-3l1-1 2-2 2-1 1-1 44-20 20-44c3-5 7-8 12-9l2 0c4 0 8 2 11 5l59 58c5 5 6 12 3 17z m-26 232c0-10-8-18-18-18-10 0-18 8-18 18 0 10 8 18 18 18 10 0 18-8 18-18z"/>
<glyph glyph-name="gsm" unicode="&#86;" d="M190 387c-2 2-4 4-7 4-3 0-5-2-7-4-43-44-43-115 0-159 2-2 4-3 7-3 3 0 5 1 7 3 2 2 3 4 3 7 0 3-1 5-3 7-17 18-27 41-27 66 0 25 10 48 27 66 4 4 4 9 0 13z m132-159c2-3 5-4 7-4 3 0 6 1 7 4 44 44 44 115 0 159-3 4-10 4-14 0-4-4-4-10 0-14 18-18 28-42 28-66 0-25-10-49-28-66-3-4-3-10 0-13z m-190-54c3 0 5 1 7 3 2 2 3 4 3 7 0 3-1 5-3 7-31 31-48 73-48 117 0 44 17 86 48 117 4 4 4 10 0 14-4 4-10 4-14 0-72-72-72-189 0-261 2-2 4-4 7-4z m241 264c-2-1-3-4-3-7 0-3 1-5 3-7 31-31 48-73 48-117 0-44-17-86-48-117-2-1-3-4-3-7 0-2 1-5 3-7 2-2 4-3 7-3 3 0 5 1 7 3 72 72 72 189 0 261-4 4-10 5-14 1z m-84-97c-18 19-47 19-66 0-18-18-18-47 0-66 3-2 6-4 9-6l-72-177c-2-6 0-13 5-17 3-2 6-3 9-3 3 0 7 1 9 3l73 61 72-61c3-3 6-4 10-4 3 0 6 1 8 3 6 4 8 11 5 17l-71 177c3 2 6 4 8 7 9 8 15 20 15 33 0 12-5 24-14 33z m-103-239l27 70 29-23z m140 0l-55 47 28 24z m-35 90l-35-30-34 30 27 70c5-1 10-1 15 0z"/>
<glyph glyph-name="power" unicode="&#87;" d="M86 243c0 39 14 76 39 106 11 14 24 26 39 35 6 4 14 4 20 3 7-2 13-6 16-12 7-13 3-29-9-36l-2-1-5-4c-7-6-13-12-19-19-17-20-27-46-27-72 0-32 13-62 35-84 22-23 52-35 83-35 31 0 61 13 83 35 22 22 35 52 34 84 1 26-8 51-25 71-8 10-17 18-27 25-12 8-17 24-9 36 3 6 9 10 16 12 7 2 14 1 20-3 15-10 28-21 39-35 25-30 39-68 39-107 0-94-76-170-170-171-94 1-170 77-170 172z m144 13l0 158c0 15 11 27 26 27 15 0 26-12 26-27l0-158c0-15-11-26-26-26-15 0-26 11-26 26z"/>
<glyph glyph-name="relay" unicode="&#88;" d="M114 441l284 0c24 0 43-19 43-43l0-284c0-24-19-43-43-43l-284 0c-24 0-43 19-43 43l0 284c0 24 19 43 43 43z m194-244l0 0c0-8-6-15-15-15l-74 0c-8 0-15 7-15 15l0 0c0 9 7 15 15 15l74 0c9 0 15-6 15-15z m-150-70l0 0c-9 0-15 7-15 16l0 101c0 9 6 15 15 15l0 0c8 0 15-6 15-15l0-101c0-9-7-16-15-16z m196 0l0 0c-8 0-15 7-15 16l0 101c0 9 7 15 15 15l0 0c9 0 15-6 15-15l0-101c0-9-6-16-15-16z m-98 129l0 0c-9 0-15 7-15 15l0 98c0 9 6 16 15 16l0 0c8 0 15-7 15-16l0-98c0-8-7-15-15-15z m52-113l0 0c0-9-7-16-15-16l-74 0c-9 0-15 7-15 16l0 0c0 8 6 15 15 15l74 0c8 0 15-7 15-15z"/>
<glyph glyph-name="wifi" unicode="&#89;" d="M143 235l39-38c3-2 7-2 9 0 19 15 41 23 65 23 24 0 47-9 66-24 2-2 6-2 9 0l38 39c1 1 2 3 2 5 0 1-1 3-2 4-64 58-161 58-226 0-2-2-2-6 0-9z m71-72l37-35c3-3 7-3 10 0l36 37c1 1 2 3 2 5 0 2-2 4-3 5-25 17-57 16-81-1-2-1-3-3-3-5 0-2 1-4 2-6z m-141 141l38-37c3-3 7-3 10 0 37 33 85 52 135 51 50 1 98-18 135-52 3-2 7-2 10 0l38 39c2 2 2 7 0 10-103 96-263 96-366 0-1-2-2-4-2-5 0-2 1-4 2-6z"/>
</font>
</defs>
</svg>
