<?xml version="1.0" standalone="no"?>
<!DOCTYPE svg PUBLIC "-//W3C//DTD SVG 1.1//EN" "http://www.w3.org/Graphics/SVG/1.1/DTD/svg11.dtd">
<svg xmlns="http://www.w3.org/2000/svg">
<metadata>Generated by Fontastic.me</metadata>
<defs>
<font id="installer" horiz-adv-x="512">
<font-face font-family="installer" units-per-em="512" ascent="480" descent="-32"/>
<missing-glyph horiz-adv-x="512" />

<glyph glyph-name="header-apply" unicode="&#97;" d="M192 166l-90 90-29-30 119-119 256 256-30 30z"/>
<glyph glyph-name="header-arrow-back" unicode="&#98;" d="M427 277l-261 0 120 120-30 30-171-171 171-171 30 30-120 120 261 0z"/>
<glyph glyph-name="header-delete" unicode="&#99;" d="M142 124c0-22 17-39 39-39l152 0c21 0 38 17 38 39l0 227-229 0z m246 284l-67 0-18 19-95 0-19-19-65 0 0-38 266 0 0 38z"/>
<glyph glyph-name="header-history-command-screen" unicode="&#100;" d="M256 427c-94 0-171-77-171-171 0-94 77-171 171-171 94 0 171 77 171 171 0 94-77 171-171 171z m23-180c0-8-6-14-14-14l-106 0c-7 0-13 6-13 14 0 7 6 13 13 13l93 0 0 93c0 7 6 13 13 13 8 0 14-6 14-13z"/>
<glyph glyph-name="header-menu" unicode="&#101;" d="M92 377l328 0 0-43-328 0z m0-100l228 0 0-42-228 0z m0-99l114 0 0-43-114 0z"/>
<glyph glyph-name="header-notification" unicode="&#102;" d="M210 117l93 0c0-26-21-46-46-46-27 0-47 21-47 46z m47 324c-18 1-35-14-37-33 0 0 0-1 0-1l0-17c-41-15-69-54-69-98l0-29c0-18-7-35-20-48l-4-5c-10-9-13-24-8-36 6-12 19-19 32-19l210 0c19 0 33 14 33 33l0 1c0 7-3 16-7 21l-10 12c-11 13-17 28-17 45l0 27c0 44-29 84-70 99l0 11c0 18-14 35-33 37z"/>
<glyph glyph-name="menu-home" unicode="&#103;" d="M256 441c-102 0-185-83-185-185 0-102 83-185 185-185 102 0 185 83 185 185 0 102-83 185-185 185z m63-259l-47 0 0 44-33 0 0-44-47 0 0 94 63 48 62-48 0-94z"/>
<glyph glyph-name="menu-sign-out" unicode="&#104;" d="M256 441c-102 0-185-83-185-185 0-102 83-185 185-185 102 0 185 83 185 185 0 102-83 185-185 185z m-14-91c0 8 7 14 14 14 4 0 7-1 10-4 3-3 4-6 4-10l0-6c0-33 0-65 0-98 0-7-7-14-14-14-7 0-14 6-14 14 0 13 0 24 0 37 0 6 0 10 0 16l0 4c0 4 0 7 0 11 0 12 0 23 0 36z m32-201c-55-10-109 26-119 81 0 0 0 0 0 2-6 34 3 65 28 91 3 3 8 4 12 4 4 0 7-1 10-4 3-3 4-6 4-10 0-4-1-7-4-10-12-11-19-26-22-41-5-40 23-79 63-84 40-6 78 23 84 62 3 23-4 44-20 62-4 4-6 9-4 15 3 7 10 12 18 10 3 0 5-1 6-4 17-19 27-40 30-64 0-2 0-4 0-6 0-1 0-1 0-3-2-49-36-91-86-101z"/>
<glyph glyph-name="menu-user-settings" unicode="&#105;" d="M230 440l-12-45c-12-3-23-7-33-14l-41 22-37-37 22-41c-5-10-10-21-14-33l-45-12 0-52 45-12c3-12 7-23 14-33l-22-41 37-37 41 22c10-5 21-9 33-14l12-45 52 0 12 45c12 3 23 7 33 14l41-22 37 37-22 41c5 10 10 21 14 33l45 12 0 52-45 12c-3 12-7 23-14 33l22 41-37 37-41-22c-10 5-21 10-33 14l-12 45z m26-101c46 0 84-38 84-84 0-45-38-83-84-83-46 0-84 38-84 83 0 46 38 84 84 84z m0-49c-18 0-34-15-34-35 0-19 14-34 34-34 20 0 34 15 34 34 0 20-16 35-34 35z"/>
<glyph glyph-name="other-add-photo-big" unicode="&#106;" d="M449 269c-7-1-15-2-22-2-5 0-11 0-16 1-1 0-2 0-3 0-4 0-8 1-12 2-1 0-2 1-2 1-4 1-9 2-13 3 0 0-1 1-1 1-5 1-9 3-13 6l81-132 0-64-384 0 0 64 70 71c9 8 22 8 31 0l55-55c8-8 20-7 26 3l84 134c1 1 2 1 2 2-6 7-12 13-18 21-3 4-5 8-7 12 0 0-1 0-1 0-2 4-3 8-6 12 0 0 0 0 0 1-2 4-3 7-4 11-1 1-1 1-1 2-1 4-2 7-3 11-1 1-1 2-1 3-1 3-1 7-2 10 0 2 0 3 0 4-1 5-1 9-1 14 0 15 3 29 7 43l-252 0c-24 0-43-19-43-43l0-341c0-23 19-43 43-43l426 0c24 0 43 20 43 43l0 232c-16-12-34-21-54-25-3-1-6-2-9-2z m-342 30c-24 0-43 19-43 42 0 24 19 43 43 43 23 0 42-19 42-43 0-23-19-42-42-42z m341 192l-43 0 0-64-64 0 0-43 64 0 0-64 43 0 0 64 64 0 0 43-64 0z"/>
<glyph glyph-name="other-arrow-drop-dowm" unicode="&#107;" d="M149 299l107-107 107 107z"/>
<glyph glyph-name="other-asset-details" unicode="&#108;" d="M129 407l222 0 0-13-222 0z m222 34c0 0-54 14-111 14-57 0-111-14-111-14l0-20 222 0z m15-282l-20-5c-36 29-57 101-66 132l-48 0c6-13 40-105 23-159l-20-6 17-56 20 6c14-13 34-17 52-11 19 5 33 21 37 38l20 6z m-47-81c-19-5-40 6-46 24-6 19 6 40 24 46 19 6 40-6 46-24 5-20-5-40-24-46z m1 196l31-1 0 105-222 0 0-105 32 0 0 1c0 10 8 19 18 19l121 0c11 1 20-7 20-19z m-80 46c-10 0-18 9-18 18 0 10 8 19 18 19 10 0 19-9 19-19 0-9-9-18-19-18z"/>
<glyph glyph-name="other-commands" unicode="&#109;" d="M417 411l-321 0c-14 0-24-12-24-24l0-262c0-12 11-24 24-24l321 0c13 0 25 11 25 24l0 262c-1 12-12 24-25 24z m-233-221c-6-6-15-6-22 0-7 5-6 16 0 21l48 47-48 47c-6 6-6 16 0 22 6 6 15 6 22 0l57-57c3-3 5-7 5-11 0-4-1-8-5-11z m154-5l-80 0c-9 0-14 7-14 14 0 9 7 14 14 14l80 0c9 0 15-7 15-14 2-8-6-14-15-14z"/>
<glyph glyph-name="other-delete-content" unicode="&#110;" d="M142 124c0-22 17-39 38-39l152 0c21 0 38 17 38 39l0 227-228 0z m246 283l-66 0-19 20-95 0-19-20-66 0 0-38 265 0z"/>
<glyph glyph-name="other-delete-text-input" unicode="&#111;" d="M387 367l-20 20-111-111-111 111-20-20 111-111-111-111 20-20 111 111 111-111 20 20-111 111z"/>
<glyph glyph-name="other-email" unicode="&#112;" d="M393 393l-274 0c-19 0-34-15-34-35l0-204c0-20 15-35 34-35l274 0c19 0 34 15 34 35l0 204c0 20-15 35-34 35z m0-69l-137-85-137 85 0 34 137-85 137 85z"/>
<glyph glyph-name="other-info" unicode="&#113;" d="M256 85c95 0 171 76 171 171 0 95-76 171-171 171-95 0-171-76-171-171 0-95 76-171 171-171z m25 106c0-13-12-23-25-23-13 0-25 10-25 23l0 69c0 12 12 23 25 23 13 0 25-11 25-23z m-25 153c13 0 25-11 25-24 0-14-12-25-25-25-13 0-25 11-25 25 0 14 12 24 25 24z"/>
<glyph glyph-name="other-menu-content" unicode="&#114;" d="M292 404c0-20-16-36-36-36-20 0-36 16-36 36 0 20 16 35 36 35 20 0 36-15 36-35z m0-149c0-20-16-36-36-36-20 0-36 16-36 36 0 19 16 35 36 35 20 0 36-16 36-35z m0-150c0-19-16-35-36-35-20 0-36 16-36 35 0 20 16 36 36 36 20 0 36-16 36-36z"/>
<glyph glyph-name="other-name" unicode="&#115;" d="M71 88c0 71 40 135 104 167 33-45 95-54 139-22 9 6 16 14 23 23 64-31 105-95 105-166l-371 0z m184 164c-47 0-86 38-86 85 0 47 39 85 86 85 47 0 85-38 85-85 1-47-37-85-85-85z"/>
<glyph glyph-name="other-password" unicode="&#116;" d="M348 313l0 35c0 52-41 93-92 93-51 0-92-41-92-93l0-35c-29-26-47-63-47-104 0-77 62-139 139-139 77 0 139 62 139 139-1 41-18 78-47 104z m-69-127c0-12-10-22-23-22-13 0-23 10-23 22l0 47c0 13 10 23 23 23 13 0 23-10 23-23z m23 154c-15 6-30 8-47 8-17 0-32-2-47-8l0 8c0 26 21 47 47 47 25 0 47-21 47-47z"/>
<glyph glyph-name="other-payment" unicode="&#117;" d="M71 166l114 0 0 80-114 0z m77 57c10 0 17-7 17-17 0-10-7-17-17-17-10 0-17 7-17 17 0 9 8 17 17 17z m293 83c0 18-17 34-39 34l-274 0c-21 0-38-16-38-34l0-49 101 0c2 0 5-2 5-5l0-91c0-3-3-6-5-6l-101 0 0-48c0-20 17-36 38-36l276 0c21 0 38 16 38 34l0 201z m-122 135l-131-87 31 13 115 50z m48-24l-21-9-133-57 57 0 64 27c4-11 19-18 30-12l6-15 23 0z"/>
<glyph glyph-name="other-received-message" unicode="&#118;" d="M406 374l-299 0c-11 0-22-10-22-22l0-13 171-72 171 72 0 13c0 12-10 22-21 22z m-150-128c-1 0-3 0-4 1l-167 70 0-157c0-11 10-22 22-22l299 0c11 0 22 10 22 22l0 157-168-70c-1-1-3-1-4-1z"/>
<glyph glyph-name="other-search-input" unicode="&#119;" d="M427 107l-118 118c5 8 11 17 15 27 27 64-3 136-67 163-15 7-31 10-48 10-68 0-124-55-124-125 0-50 30-95 77-115 44-19 93-10 127 18l118-118z m-217 99c-52 0-95 43-95 96 0 52 43 95 95 95 53 0 96-43 96-95 0-53-43-96-96-96z"/>
<glyph glyph-name="other-sent-message" unicode="&#120;" d="M85 408l342-152-298 24z m0-304l342 152-298-24z"/>
<glyph glyph-name="other-service-details" unicode="&#121;" d="M230 440l-12-45c-12-3-23-7-33-14l-41 22-37-37 22-41c-5-10-10-21-14-33l-45-12 0-52 45-12c3-12 7-23 14-33l-22-41 37-37 41 22c10-5 21-9 33-14l12-45 52 0 12 45c12 3 23 7 33 14l41-22 37 37-22 41c5 10 10 21 14 33l45 12 0 52-45 12c-3 12-7 23-14 33l22 41-37 37-41-22c-10 5-21 10-33 14l-12 45z m26-101c46 0 84-38 84-84 0-45-38-83-84-83-46 0-84 38-84 83 0 46 38 84 84 84z m0-49c-18 0-34-15-34-35 0-19 14-34 34-34 20 0 34 15 34 34 0 20-16 35-34 35z"/>
<glyph glyph-name="other-unit" unicode="&#122;" d="M132 114c2 0 3 0 5 1 29 19 73 29 118 29 45 0 88-10 118-29 4-1 8-1 11 2 28 31 43 69 43 111 0 93-77 170-171 170-94 0-171-77-171-170 0-42 15-80 42-111 1-2 4-3 5-3z m36 52l-20-11c-2-1-3-1-4-1-3 0-6 1-7 4-3 4-2 10 2 11l20 12c5 2 10 1 12-3 3-4 1-10-3-12z m210-8c-1-3-4-4-7-4-1 0-3 0-4 1l-20 11c-4 3-6 8-3 12 3 4 7 5 12 3l19-12c5-1 6-7 3-11z m16 70c0-5-4-9-9-9l-22 0c-5 0-9 4-9 9 0 4 4 8 9 8l22 0c6 0 9-4 9-8z m-50 61l20 11c4 3 10 2 11-3 3-4 2-10-2-11l-20-12c-2-1-3-1-5-1-2 0-5 1-7 4-3 3-1 9 3 12z m-42 35l11 20c3 4 7 6 11 3 5-3 6-7 3-11l-11-20c-2-3-5-5-7-5-2 0-3 0-5 2-2 1-4 7-2 11z m-55 33c0 4 5 9 9 9 4 0 9-5 9-9l0-23c0-4-5-8-9-8-4 0-9 4-9 8z m-12-111c10 9 82 44 85 46 1 0 3 0 4-2 2-1 2-3 0-4-1-3-44-71-54-80-4-4-11-7-17-7-7 0-14 3-20 9-10 11-10 28 2 38z m-46 100c4 2 10 1 12-3l11-20c3-4 1-10-3-12-1-1-3-1-4-1-3 0-6 1-7 4l-12 20c-3 4-1 10 3 12z m-51-50c3 4 7 6 11 3l20-12c5-3 6-7 3-11-1-3-4-4-7-4-1 0-3 0-4 1l-19 11c-4 2-5 8-4 12z m-20-68c0 4 4 8 9 8l22 0c5 0 9-4 9-8 0-5-4-9-9-9l-22 0c-6 0-9 4-9 9z"/>
<glyph glyph-name="replace-imei" unicode="&#65;" d="M400 338l-103 0 0 103-82 0 0-226 185 0z m-82 103l0-83 82 0z m-124-144l-82 0 0-226 185 0 0 123-103 0z m206-164l0 21 21 0-42 40-41-40 21 0 0-21c0-12-9-21-21-21l-20 0 0-41 20 0c35 0 62 28 62 62z m-226 225l-21 0 0 21c0 12 9 21 21 21l20 0 0 41-20 0c-35 0-62-28-62-62l0-21-20 0 41-40z"/>
<glyph glyph-name="sim-info-csp" unicode="&#66;" d="M273 240l0-168c66 23 121 87 140 168z m-174 0c19-81 74-145 140-168l0 168z m308 158l-134 43 0-167 146 0c1 9 2 19 2 28 0 33-5 66-14 96z m-302 0c-8-30-13-63-13-96 0-9 1-19 2-28l146 0 0 167z"/>
<glyph glyph-name="sim-info-customer" unicode="&#67;" d="M175 354c0-49 36-116 81-116 45 0 81 67 81 116 0 48-36 87-81 87-45 0-81-39-81-87z m243-283c13 0 23 11 22 23-2 29-8 79-24 93-13 14-101 41-101 41l-59-44-59 44c0 0-87-26-102-40-15-15-22-64-24-93-1-13 10-23 22-23l325 0z"/>
<glyph glyph-name="sim-info-date" unicode="&#68;" d="M414 391c0-28-71-51-159-51-88 0-158 22-159 51 0 27 71 50 159 50 88 0 159-23 159-50z m1-270c0-27-71-50-159-50-88 0-158 22-159 50l0 67c0-28 71-51 159-51 88 0 158 22 159 51z m0 89c0-27-71-50-159-50-87 0-158 22-159 50l0 66c0-28 71-50 159-50 87 0 158 21 159 50z m0 91c0-28-71-51-159-51-87 0-158 22-159 51l0 64c0-27 71-50 159-50 87 0 158 22 159 50z"/>
<glyph glyph-name="sim-info-sms" unicode="&#69;" d="M101 73l100 68 180 0c24 0 44 19 44 44l0 212c0 24-19 44-44 44l-250 0c-24 0-44-19-44-44l0-317c0-7 8-12 14-7z m36 293l239 0 0-31-239 0z m0-59l239 0 0-32-239 0z m0-60l138 0 0-33-138 0z"/>
<glyph glyph-name="sim-info-state" unicode="&#70;" d="M365 399l-217 0c-20 0-37-16-37-37l0-217c0-20 16-37 37-37l217 0c20 0 37 16 37 37l0 218c-1 20-17 36-37 36z m14-253c0-9-6-14-14-14l-217 0c-8 0-14 6-14 14l0 216c0 8 6 14 14 14l216 0c8 0 14-6 14-14z m-201 265l-27 0 0 24c0 3 3 6 5 6l16 0c2 0 5-3 5-6l0-24z m62 24c0 3-3 6-6 6l-16 0c-3 0-6-3-6-6l0-24 28 0z m61 0c0 3-3 6-6 6l-15 0c-3 0-6-3-6-6l0-24 28 0 0 24z m55 6l-16 0c-2 0-5-3-5-6l0-24 27 0 0 24c-1 3-3 6-6 6z m-285-268l0-16c0-2 3-5 6-5l24 0 0 27-24 0c-3-1-6-4-6-6z m0 60l0-15c0-3 3-6 6-6l24 0 0 28-24 0c-3 0-6-3-6-7z m0 62l0-15c0-3 3-6 6-6l24 0 0 28-24 0c-3-1-6-4-6-7z m0 61l0-17c0-2 3-5 6-5l24 0 0 27-24 0c-3 0-6-2-6-5z m263-279c0-3 3-6 5-6l16 0c2 0 5 3 5 6l0 24-27 0z m-62 0c0-3 3-6 6-6l16 0c3 0 6 3 6 6l0 24-28 0z m-61 0c0-3 3-6 6-6l15 0c3 0 6 3 6 6l0 24-28 0z m-60 0c0-3 3-6 5-6l16 0c2 0 5 3 5 6l0 24-27 0 0-24z m284 284l-24 0 0-27 24 0c3 0 6 3 6 5l0 16c0 3-3 6-6 6z m0-61l-24 0 0-28 24 0c3 0 6 3 6 6l0 16c0 4-3 6-6 6z m0-61l-24 0 0-28 24 0c3 0 6 3 6 6l0 15c0 4-3 7-6 7z m0-62l-24 0 0-27 24 0c3 0 6 3 6 5l0 17c0 3-3 5-6 5z m-268 149l0-145c0-9 7-17 17-17l145 0c9 0 17 8 17 17l0 145c0 10-8 17-17 17l-145 0c-10 1-17-7-17-17z"/>
<glyph glyph-name="status-acc" unicode="&#71;" d="M410 398l-86 0c-17 0-25-11-25-28l0-90c0-17 8-38 25-38l17 0 0-105c0-2-1-3-1-5l26-27c1-1 2-1 4 0l27 27c1 2 1 3 1 5l0 12c0 2-1 3-3 5l-14 14c-1 1-1 3 0 3l13 12c3 3 3 9 0 12l-13 13c-1 1-1 2 0 2l14 15c2 1 3 3 3 4l0 13 12 0c17 0 31 20 31 38l0 90c0 17-14 28-31 28z m-40-99c-14 0-26 11-26 25 0 14 12 26 26 26 14 0 25-12 25-26 0-14-11-25-25-25z m-100-19l0 90c0 10-5 0 0 14l-14 0c-3 0-6 9-9 9-18 0-37 2-55 0-13-3-31-6-44-25-7-10-19-38-29-61-7 4-14 6-22 6l-7 0c-10 0-19-2-19-11l0-15c0-11 9-17 20-31l9 0c0 0 0 3-2 1-8-14-13-24-13-41l0-92c0-10 7-24 19-24l24 0c11 0 14 14 14 25l0 3 171 0 0 92c-43 9-43 33-43 60z m-72-67c-2-5-7-14-15-14l-35 0c-9 0-16 11-16 19l0 11c0 9 7 16 16 16 1 0 3 0 4 0l36-12c8-1 13-11 10-20z"/>
<glyph glyph-name="status-address" unicode="&#72;" d="M256 441c-77 0-139-63-139-139 1-116 126-231 139-231 10 0 139 115 139 232 0 75-62 138-139 138z m0-192c-30 0-54 24-54 54 0 30 24 53 54 53 30 0 54-25 54-54 0-30-24-53-54-53z"/>
<glyph glyph-name="status-alert" unicode="&#73;" d="M438 128l-162 280c-9 16-31 16-40 0l-162-280c-9-16 1-36 20-36l323 0c18 0 30 20 21 36z m-188 193c10 3 20-2 24-11 2-3 2-7 2-10-2-10-2-20-2-31-1-16-1-33-2-49 0-4 0-10-2-15 0-9-7-16-15-16-9 0-16 7-16 14-1 25-3 50-4 74 0 7-2 13-2 20 2 13 9 23 17 24z m6-184c-11 0-20 9-20 21 0 11 10 21 21 21 12 0 20-10 20-21-1-13-10-21-21-21z"/>
<glyph glyph-name="status-battery" unicode="&#74;" d="M407 346l-302 0c-20 0-34-15-34-33l0-168c0-18 16-34 34-34l303 0c19 0 34 16 34 34l0 168c-1 18-15 33-35 33z m-216-128l-50 0c-6 0-12 4-12 11 0 7 5 11 12 11l48 0c6 0 12-4 12-11 0-7-5-11-10-11z m182 0l-13 0 0-13c0-6-4-12-12-12-7 0-11 5-11 12l0 13-13 0c-5 0-11 4-11 11 0 6 4 11 11 11l13 0 0 13c0 6 4 12 11 12 6 0 12-5 12-12l0-13 13 0c5 0 11-4 11-11 0-7-6-11-11-11z m-167 157c0 13-8 23-20 23l-41 0c-11 0-20-11-20-23l0-19 80 0 0 19z m182 3c0 13-8 23-20 23l-41 0c-11 0-20-11-20-23l0-20 80 0 0 20z"/>
<glyph glyph-name="status-charger" unicode="&#75;" d="M74 249l84 152c7 13 23 19 37 13 11-6 18-16 18-27l0-108 47 0c14 0 26-12 26-26 0-4-2-8-3-13l-84-152c-6-8-14-14-25-14-16 0-29 13-29 28l0 108-48 0c-15 0-26 12-26 26 0 4 2 9 3 13z m343 121l-46 0 0 45c0 12-7 22-18 23-12 3-23-6-26-17 0-1 0-3 0-4l0-47-45 0c-12 0-22-7-23-19-3-13 6-24 17-27 1 0 3 0 4 0l47 0 0-45c0-12 7-22 19-23 12-3 24 6 27 17 0 1 0 3 0 4l0 46 45 0c13 0 23 10 23 23 0 1 0 2 0 4-3 13-13 20-24 20z"/>
<glyph glyph-name="status-gprs" unicode="&#76;" d="M144 235l38-39c3-3 7-3 9 0 18 14 41 23 65 23 24 0 47-9 65-24 3-3 8-3 10 0l39 38c3 3 3 7 0 10-64 60-167 56-226 0-3-1-3-5 0-8z m71-71l37-36c3-3 7-3 10 0l35 37c3 3 3 9-1 10-23 16-58 16-81-1-3-3-3-8 0-10z m-142 140l38-38c3-3 7-3 10 0 38 34 82 51 135 51 53 0 97-18 135-52 3-3 7-3 10 0l38 38c3 3 3 7 0 10-106 101-273 89-365 0-3-2-3-6-1-9z"/>
<glyph glyph-name="status-gps" unicode="&#77;" d="M371 114l-8 20 35 35 9-20z m-151 220l20-8-35-36-20 9z m-72 73l20-9-36-35-18 8z m142-202l36 35 8-20-35-35z m149-53l-22 50c0 1-2 1-2 3 0 0 0 0-1 1 0 0-2 2-2 2 0 0-1 1-1 1 0 0-1 0-1 1l-44 20-20 44c0 5 1 8 1 12 4 0 9-2 13-2 18 0 37 8 51 22 6 5 6 15 0 21l-81 81c-6 6-16 6-21 0-17-17-25-41-20-64-5 0-7 0-12-1 0 0 0 0-1 0l-44 20-20 44c0 1-2 1-2 3 0 0 0 0-1 1 0 0-1 1-1 1 0 0-2 2-2 2 0 0-1 0-1 1l-50 23c-9 4-16 3-21-1l-59-59c-2-4-4-10-4-14 2-4 4-8 9-11l44-20 20-44c0-2 1-2 1-3 0 0 0 0 1-2 0 0 2-1 2-1 0 0 1 0 1-1 0 0 2-2 2-2l38-17c0-3-1-6-1-8l-46-15c-5-1-8-5-10-11-1-6 0-11 5-14l27-27-27-27c-6-6-6-16 0-22 2-2 7-4 11-4 4 0 8 2 11 4l27 27 27-27c3-2 7-4 12-4 1 0 3 0 4 0 6 2 10 6 11 10l15 46c2 0 5 0 8 1l17-38c0-2 2-2 2-3 0 0 0 0 1-2 0 0 1-1 1-1 0 0 2-2 2-2 0 0 1 0 1-1l44-20 20-44c2-4 6-8 12-8 1 0 1 0 3 0 4 0 8 1 11 4l58 58c6 4 7 11 4 17z m-25 232c0-10-8-18-19-18-10 0-18 8-18 18 0 10 8 18 18 18 11 0 19-8 19-18z"/>
<glyph glyph-name="status-gsm" unicode="&#78;" d="M191 387c-5 4-10 4-15 0-44-44-44-115 0-159 2-2 5-3 7-3 3 0 5 1 8 3 4 4 4 10 0 14-37 37-37 95 0 132 2 3 2 10 0 13z m132-159c1-2 4-3 7-3 3 0 4 1 7 3 44 44 44 115 0 159-4 4-10 4-14 0-4-4-4-10 0-14 37-37 37-96 0-133-4-2-4-8 0-12z m-191-54c3 0 5 1 7 2 5 5 5 10 0 15-64 64-64 169 0 233 5 4 5 10 0 14-4 4-10 4-14 0-72-72-72-189 0-260 3-3 4-4 7-4z m241 264c-5-4-5-10 0-14 64-64 64-169 0-233-5-5-5-10 0-15 1-1 4-2 7-2 3 0 4 1 7 2 72 73 72 190 0 261-4 5-10 5-14 1z m-84-97c-19 19-49 19-66 0-18-18-18-48 0-65 3-3 6-4 9-6l-71-176c-3-6 0-13 4-17 3-2 6-3 9-3 2 0 7 1 8 3l73 61 72-61c3-3 6-3 9-3 2 0 5 1 8 3 6 4 7 11 4 17l-71 178c3 1 6 4 9 5 21 16 21 46 3 64z m-103-239l27 70 27-23z m140 0l-56 47 27 23z m-36 90l-34-30-34 30 27 70c3 0 4 0 7 0 3 0 4 0 7 0z"/>
<glyph glyph-name="status-power" unicode="&#79;" d="M87 243c0 47 20 84 38 107 19 23 37 34 40 34 13 7 28 3 36-10 7-13 2-28-9-36 0 0-1 0-1-1-2-1-3-3-6-4-6-4-11-10-19-19-14-17-27-40-27-72 0-33 13-63 35-84 21-21 51-34 82-34 33 0 61 13 82 34 22 21 35 51 35 84 0 31-13 54-26 71-13 16-26 24-27 25-13 8-17 25-9 36 8 13 23 17 36 10 1-1 20-13 40-36 18-22 38-58 38-106 0-94-75-171-169-171-94 0-169 77-169 172z m143 13l0 158c0 16 12 27 26 27 14 0 26-11 26-27l0-158c0-14-12-27-26-27-14 0-26 13-26 27z"/>
<glyph glyph-name="direction" unicode="&#80;" d="M441 256l-95 78 0-57-67 0 0 69 57 0-80 95-80-95 57 0 0-69-67 0 0 57-95-78 95-80 0 57 67 0 0-67-57 0 80-95 80 95-57 0 0 67 67 0 0-57z"/>
<glyph glyph-name="other-mobile-phone" unicode="&#81;" d="M185 441c-20 0-37-16-40-36l221 0c-3 20-19 36-40 36z m-39-53l0-246 221 0 0 246z m0-263l0-13c0-21 18-39 40-39l141 0c21 0 40 17 40 39l0 13z m79-18l61 0c4 0 8-5 8-9 0-4-4-8-8-8l-61 0c-5 0-9 4-9 8 0 4 4 9 9 9z"/>
<glyph glyph-name="other-phone" unicode="&#82;" d="M370 262l24 0c0 72-58 131-131 131l0-25c58 0 107-48 107-106z m60-84l-96 35-35-35c-47 31-89 72-120 119l36 36-36 95-7 0c-26 0-51-10-70-28-20-20-31-46-31-74 0-19 4-37 14-53 46-78 110-142 188-188 16-10 34-14 53-14 27 0 54 11 74 31 18 19 28 44 28 70l0 6z m-168 263l0-24c85 0 155-70 155-155l24 0c0 98-80 179-179 179z"/>
<glyph glyph-name="other-relay" unicode="&#83;" d="M398 441l-284 0c-24 0-43-19-43-43l0-284c0-24 19-43 43-43l284 0c24 0 43 19 43 43l0 284c0 24-19 43-43 43z m-158-71c0 8 7 14 16 14 9 0 16-7 16-16l0-98c0-8-7-15-16-15-9 0-16 7-16 15z m-66-228c0-8-8-15-16-15-9 1-16 7-16 15l0 101c0 10 7 16 16 16 8 0 16-7 16-16z m119-15l-74 0c-9 1-16 7-16 15 0 9 7 16 16 16l74 0c9 0 16-7 16-16 0-8-7-15-16-15z m0 55l-74 0c-9 0-16 7-16 16 0 8 7 15 16 15l74 0c9 0 16-7 16-15 0-9-7-16-16-16z m77-40c0-8-7-15-16-15-8 0-16 7-16 15l0 101c0 10 8 16 16 16 9 0 16-7 16-16z"/>
<glyph glyph-name="status-pin" unicode="&#84;" d="M256 457c-83 0-151-68-151-151 0-126 138-251 151-251 11 0 151 125 151 251 0 83-68 151-151 151z m0-209c-33 0-59 26-59 58 0 33 26 59 59 59 33 0 59-26 59-59 0-32-27-58-59-58z"/>
<glyph glyph-name="other-activation" unicode="&#85;" d="M256 441c-102 0-185-83-185-185 0-102 83-185 185-185 102 0 185 83 185 185 0 102-83 185-185 185z m98-139l-119-119c-4-4-8-6-14-6-5 0-11 2-14 6l-51 50c-7 8-7 20 0 28 8 7 20 7 28 0l36-36 104 104c8 8 20 8 28 0 9-8 9-20 2-27z"/>
</font>
</defs>
</svg>
